<?xml version="1.0" encoding="utf-8"?>
<!-- Generator: Adobe Illustrator 18.0.0, SVG Export Plug-In . SVG Version: 6.00 Build 0)  -->
<!DOCTYPE svg PUBLIC "-//W3C//DTD SVG 1.1//EN" "http://www.w3.org/Graphics/SVG/1.1/DTD/svg11.dtd">
<svg version="1.1" id="Layer_1" xmlns="http://www.w3.org/2000/svg" xmlns:xlink="http://www.w3.org/1999/xlink" x="0px" y="0px"
	 viewBox="0 131 660 145" enable-background="new 0 131 660 145" xml:space="preserve">
<g>
	<path fill="#FFFFFF" d="M11,242.5H7.6c-0.2,0-0.4-0.2-0.4-0.4v-1.2c0-0.2,0.2-0.4,0.4-0.4h9.1c0.2,0,0.4,0.2,0.4,0.4v1.2
		c0,0.2-0.2,0.4-0.4,0.4h-3.5V255c0,0.2-0.2,0.4-0.4,0.4h-1.4c-0.2,0-0.4-0.2-0.4-0.4V242.5z"/>
	<path fill="#FFFFFF" d="M18.7,254.8l6.5-14.3c0.1-0.1,0.3-0.2,0.4-0.2h0.2c0.1,0,0.3,0.1,0.4,0.2l6.5,14.3c0.1,0.3,0,0.6-0.4,0.6
		h-1.3c-0.3,0-0.4-0.1-0.5-0.3l-1.3-2.9h-6.9c-0.4,1-0.9,1.9-1.3,2.9c-0.1,0.1-0.2,0.3-0.5,0.3H19C18.7,255.4,18.6,255.1,18.7,254.8
		z M28.3,250.3l-2.6-5.8h-0.1l-2.6,5.8H28.3z"/>
	<path fill="#FFFFFF" d="M36.8,241c0-0.3,0.2-0.5,0.5-0.5h1.2c0.3,0,0.5,0.2,0.5,0.5v5.9l6-6.2c0.1-0.1,0.2-0.2,0.4-0.2H47
		c0.4,0,0.6,0.4,0.3,0.8l-6.1,6.2l6.5,7.1c0.2,0.2,0.1,0.7-0.4,0.7h-1.7c-0.2,0-0.3-0.1-0.4-0.1l-6.2-7v6.6c0,0.3-0.2,0.5-0.5,0.5
		h-1.2c-0.3,0-0.5-0.2-0.5-0.5V241z"/>
	<path fill="#FFFFFF" d="M52.3,240.9c0-0.2,0.2-0.4,0.4-0.4h8.5c0.2,0,0.4,0.2,0.4,0.4v1.2c0,0.2-0.2,0.4-0.4,0.4h-6.7v4.3h5.7
		c0.2,0,0.4,0.2,0.4,0.4v1.2c0,0.2-0.2,0.4-0.4,0.4h-5.7v4.6h6.7c0.2,0,0.4,0.2,0.4,0.4v1.2c0,0.2-0.2,0.4-0.4,0.4h-8.5
		c-0.2,0-0.4-0.2-0.4-0.4V240.9z"/>
	<path fill="#FFFFFF" d="M75.7,242.5h-3.5c-0.2,0-0.4-0.2-0.4-0.4v-1.2c0-0.2,0.2-0.4,0.4-0.4h9.1c0.2,0,0.4,0.2,0.4,0.4v1.2
		c0,0.2-0.2,0.4-0.4,0.4h-3.5V255c0,0.2-0.2,0.4-0.4,0.4h-1.4c-0.2,0-0.4-0.2-0.4-0.4V242.5z"/>
	<path fill="#FFFFFF" d="M86.2,240.9c0-0.2,0.2-0.4,0.4-0.4H88c0.2,0,0.4,0.2,0.4,0.4v5.9h7.8v-5.9c0-0.2,0.2-0.4,0.4-0.4H98
		c0.2,0,0.4,0.2,0.4,0.4v14c0,0.2-0.2,0.4-0.4,0.4h-1.4c-0.2,0-0.4-0.2-0.4-0.4v-6.1h-7.8v6.1c0,0.2-0.2,0.4-0.4,0.4h-1.4
		c-0.2,0-0.4-0.2-0.4-0.4V240.9z"/>
	<path fill="#FFFFFF" d="M104.6,240.9c0-0.2,0.2-0.4,0.4-0.4h8.5c0.2,0,0.4,0.2,0.4,0.4v1.2c0,0.2-0.2,0.4-0.4,0.4h-6.7v4.3h5.7
		c0.2,0,0.4,0.2,0.4,0.4v1.2c0,0.2-0.2,0.4-0.4,0.4h-5.7v4.6h6.7c0.2,0,0.4,0.2,0.4,0.4v1.2c0,0.2-0.2,0.4-0.4,0.4H105
		c-0.2,0-0.4-0.2-0.4-0.4V240.9z"/>
	<path fill="#FFFFFF" d="M124.7,241c-0.1-0.3,0.1-0.5,0.4-0.5h1.4c0.2,0,0.3,0.1,0.4,0.3l2.6,9.7h0.1l3.5-10c0-0.1,0.2-0.2,0.4-0.2
		h0.4c0.2,0,0.3,0.1,0.4,0.2l3.5,10h0.1l2.5-9.7c0-0.1,0.2-0.3,0.4-0.3h1.4c0.3,0,0.5,0.2,0.4,0.5l-4,14.2c0,0.2-0.2,0.3-0.4,0.3
		h-0.3c-0.1,0-0.3-0.1-0.4-0.2l-3.7-10.5h-0.1l-3.7,10.5c0,0.1-0.2,0.2-0.4,0.2H129c-0.2,0-0.3-0.1-0.4-0.3L124.7,241z"/>
	<path fill="#FFFFFF" d="M153.6,240.3c4.2,0,7.6,3.4,7.6,7.7c0,4.2-3.4,7.6-7.6,7.6c-4.2,0-7.6-3.4-7.6-7.6
		C146,243.7,149.4,240.3,153.6,240.3z M153.6,253.5c3,0,5.5-2.5,5.5-5.5c0-3-2.5-5.5-5.5-5.5c-3,0-5.5,2.5-5.5,5.5
		C148.2,251,150.6,253.5,153.6,253.5z"/>
	<path fill="#FFFFFF" d="M166.4,240.9c0-0.2,0.2-0.4,0.4-0.4h5.8c2.5,0,4.6,2,4.6,4.5c0,1.9-1.3,3.6-3.1,4.3l2.9,5.4
		c0.1,0.3,0,0.6-0.4,0.6H175c-0.2,0-0.3-0.1-0.3-0.2l-2.8-5.6h-3.2v5.4c0,0.2-0.2,0.4-0.4,0.4h-1.4c-0.2,0-0.4-0.2-0.4-0.4V240.9z
		 M172.4,247.7c1.4,0,2.6-1.2,2.6-2.6c0-1.4-1.2-2.5-2.6-2.5h-3.8v5.2H172.4z"/>
	<path fill="#FFFFFF" d="M182.6,240.9c0-0.2,0.2-0.4,0.4-0.4h1.4c0.2,0,0.4,0.2,0.4,0.4v12.5h5.7c0.2,0,0.4,0.2,0.4,0.4v1.2
		c0,0.2-0.2,0.4-0.4,0.4h-7.5c-0.2,0-0.4-0.2-0.4-0.4V240.9z"/>
	<path fill="#FFFFFF" d="M195.3,240.9c0-0.2,0.2-0.4,0.4-0.4h4.9c4.1,0,7.4,3.3,7.4,7.4c0,4.1-3.3,7.4-7.4,7.4h-4.9
		c-0.2,0-0.4-0.2-0.4-0.4V240.9z M200.3,253.4c3.1,0,5.4-2.3,5.4-5.4c0-3.1-2.3-5.4-5.4-5.4h-2.8v10.8H200.3z"/>
	<path fill="#FFFFFF" d="M212.1,246c-0.1-0.1-0.1-0.3,0.1-0.5c0.2-0.2,1.4-1.1,1.4-2.6c0,0-0.2,0.1-0.4,0.1c-0.7,0-1.3-0.6-1.3-1.3
		c0-0.7,0.6-1.3,1.4-1.3c0.7,0,1.6,0.4,1.6,2.1c0,1.9-1.2,3.3-1.8,3.9c-0.2,0.2-0.4,0.2-0.5,0L212.1,246z"/>
	<path fill="#FFFFFF" d="M218.6,253.2c0.2-0.3,0.4-0.6,0.6-0.9c0.2-0.3,0.5-0.4,0.7-0.2c0.1,0.1,1.8,1.5,3.4,1.5
		c1.5,0,2.4-0.9,2.4-2c0-1.3-1.1-2.1-3.2-2.9c-2.2-0.9-3.9-2-3.9-4.5c0-1.7,1.3-3.9,4.6-3.9c2.1,0,3.7,1.1,3.9,1.3
		c0.2,0.1,0.3,0.4,0.1,0.7c-0.2,0.3-0.4,0.6-0.5,0.8c-0.2,0.3-0.4,0.4-0.7,0.2c-0.1-0.1-1.6-1.1-2.9-1.1c-1.8,0-2.4,1.1-2.4,1.9
		c0,1.2,0.9,2,2.7,2.7c2.5,1,4.6,2.2,4.6,4.7c0,2.2-2,4-4.7,4c-2.6,0-4.2-1.4-4.6-1.7C218.5,253.7,218.4,253.6,218.6,253.2z"/>
	<path fill="#FFFFFF" d="M239.8,240.9c0-0.2,0.2-0.4,0.4-0.4h4.7c2.6,0,4.4,1.7,4.4,3.9c0,1.6-1.2,2.8-2.2,3.4
		c1.1,0.5,2.6,1.5,2.6,3.5c0,2.4-1.9,4.1-4.6,4.1h-5c-0.2,0-0.4-0.2-0.4-0.4V240.9z M245.2,253.4c1.3,0,2.3-1,2.3-2.3
		c0-1.3-1.2-2.2-2.6-2.2H242v4.5H245.2z M244.8,247c1.4,0,2.2-1,2.2-2.3c0-1.3-0.8-2.2-2.2-2.2H242v4.5H244.8z"/>
	<path fill="#FFFFFF" d="M255.1,240.9c0-0.2,0.2-0.4,0.4-0.4h8.5c0.2,0,0.4,0.2,0.4,0.4v1.2c0,0.2-0.2,0.4-0.4,0.4h-6.7v4.3h5.7
		c0.2,0,0.4,0.2,0.4,0.4v1.2c0,0.2-0.2,0.4-0.4,0.4h-5.7v4.6h6.7c0.2,0,0.4,0.2,0.4,0.4v1.2c0,0.2-0.2,0.4-0.4,0.4h-8.5
		c-0.2,0-0.4-0.2-0.4-0.4V240.9z"/>
	<path fill="#FFFFFF" d="M268.8,253.2c0.2-0.3,0.4-0.6,0.6-0.9c0.2-0.3,0.5-0.4,0.7-0.2c0.1,0.1,1.8,1.5,3.4,1.5
		c1.5,0,2.4-0.9,2.4-2c0-1.3-1.1-2.1-3.2-2.9c-2.2-0.9-3.9-2-3.9-4.5c0-1.7,1.3-3.9,4.6-3.9c2.1,0,3.7,1.1,3.9,1.3
		c0.2,0.1,0.3,0.4,0.1,0.7c-0.2,0.3-0.4,0.6-0.5,0.8c-0.2,0.3-0.4,0.4-0.7,0.2c-0.1-0.1-1.6-1.1-2.9-1.1c-1.8,0-2.4,1.1-2.4,1.9
		c0,1.2,0.9,2,2.7,2.7c2.5,1,4.6,2.2,4.6,4.7c0,2.2-2,4-4.7,4c-2.6,0-4.2-1.4-4.6-1.7C268.7,253.7,268.6,253.6,268.8,253.2z"/>
	<path fill="#FFFFFF" d="M285.3,242.5h-3.5c-0.2,0-0.4-0.2-0.4-0.4v-1.2c0-0.2,0.2-0.4,0.4-0.4h9.1c0.2,0,0.4,0.2,0.4,0.4v1.2
		c0,0.2-0.2,0.4-0.4,0.4h-3.5V255c0,0.2-0.2,0.4-0.4,0.4h-1.4c-0.2,0-0.4-0.2-0.4-0.4V242.5z"/>
	<path fill="#FFFFFF" d="M309.1,240.3c2.1,0,3.7,0.7,5.1,2c0.2,0.2,0.2,0.4,0,0.6l-0.9,1c-0.1,0.2-0.3,0.2-0.5,0
		c-1-0.9-2.4-1.4-3.7-1.4c-3,0-5.3,2.5-5.3,5.5c0,3,2.3,5.5,5.3,5.5c1.5,0,2.6-0.6,3.6-1.4c0.2-0.1,0.4-0.1,0.5,0l1,1
		c0.2,0.1,0.1,0.4,0,0.6c-1.4,1.4-3.3,2.1-5.2,2.1c-4.2,0-7.7-3.4-7.7-7.6C301.4,243.7,304.9,240.3,309.1,240.3z"/>
	<path fill="#FFFFFF" d="M325.9,240.3c4.2,0,7.6,3.4,7.6,7.7c0,4.2-3.4,7.6-7.6,7.6c-4.2,0-7.6-3.4-7.6-7.6
		C318.3,243.7,321.6,240.3,325.9,240.3z M325.9,253.5c3,0,5.5-2.5,5.5-5.5c0-3-2.5-5.5-5.5-5.5c-3,0-5.5,2.5-5.5,5.5
		C320.4,251,322.9,253.5,325.9,253.5z"/>
	<path fill="#FFFFFF" d="M338.5,240.9c0-0.2,0.2-0.4,0.4-0.4h1.4c0.2,0,0.4,0.2,0.4,0.4v8.8c0,2.1,1.4,3.8,3.5,3.8
		c2.2,0,3.6-1.6,3.6-3.7v-8.8c0-0.2,0.2-0.4,0.4-0.4h1.4c0.2,0,0.4,0.2,0.4,0.4v8.9c0,3.2-2.4,5.7-5.8,5.7c-3.3,0-5.7-2.5-5.7-5.7
		V240.9z"/>
	<path fill="#FFFFFF" d="M356,240.9c0-0.2,0.2-0.4,0.4-0.4h5.8c2.5,0,4.6,2,4.6,4.5c0,1.9-1.3,3.6-3.1,4.3l2.9,5.4
		c0.1,0.3,0,0.6-0.4,0.6h-1.7c-0.2,0-0.3-0.1-0.3-0.2l-2.8-5.6h-3.2v5.4c0,0.2-0.2,0.4-0.4,0.4h-1.4c-0.2,0-0.4-0.2-0.4-0.4V240.9z
		 M362,247.7c1.4,0,2.6-1.2,2.6-2.6c0-1.4-1.2-2.5-2.6-2.5h-3.8v5.2H362z"/>
	<path fill="#FFFFFF" d="M371.3,253.2c0.2-0.3,0.4-0.6,0.6-0.9c0.2-0.3,0.5-0.4,0.7-0.2c0.1,0.1,1.8,1.5,3.4,1.5
		c1.5,0,2.4-0.9,2.4-2c0-1.3-1.1-2.1-3.2-2.9c-2.2-0.9-3.9-2-3.9-4.5c0-1.7,1.3-3.9,4.6-3.9c2.1,0,3.7,1.1,3.9,1.3
		c0.2,0.1,0.3,0.4,0.1,0.7c-0.2,0.3-0.4,0.6-0.5,0.8c-0.2,0.3-0.4,0.4-0.7,0.2c-0.1-0.1-1.6-1.1-2.9-1.1c-1.8,0-2.4,1.1-2.4,1.9
		c0,1.2,0.9,2,2.7,2.7c2.5,1,4.6,2.2,4.6,4.7c0,2.2-2,4-4.7,4c-2.6,0-4.2-1.4-4.6-1.7C371.2,253.7,371.1,253.6,371.3,253.2z"/>
	<path fill="#FFFFFF" d="M385.8,240.9c0-0.2,0.2-0.4,0.4-0.4h8.5c0.2,0,0.4,0.2,0.4,0.4v1.2c0,0.2-0.2,0.4-0.4,0.4h-6.7v4.3h5.7
		c0.2,0,0.4,0.2,0.4,0.4v1.2c0,0.2-0.2,0.4-0.4,0.4h-5.7v4.6h6.7c0.2,0,0.4,0.2,0.4,0.4v1.2c0,0.2-0.2,0.4-0.4,0.4h-8.5
		c-0.2,0-0.4-0.2-0.4-0.4V240.9z"/>
	<path fill="#FFFFFF" d="M399.4,253.2c0.2-0.3,0.4-0.6,0.6-0.9c0.2-0.3,0.5-0.4,0.7-0.2c0.1,0.1,1.8,1.5,3.4,1.5
		c1.5,0,2.4-0.9,2.4-2c0-1.3-1.1-2.1-3.2-2.9c-2.2-0.9-3.9-2-3.9-4.5c0-1.7,1.3-3.9,4.6-3.9c2.1,0,3.7,1.1,3.9,1.3
		c0.2,0.1,0.3,0.4,0.1,0.7c-0.2,0.3-0.4,0.6-0.5,0.8c-0.2,0.3-0.4,0.4-0.7,0.2c-0.1-0.1-1.6-1.1-2.9-1.1c-1.8,0-2.4,1.1-2.4,1.9
		c0,1.2,0.9,2,2.7,2.7c2.5,1,4.6,2.2,4.6,4.7c0,2.2-2,4-4.7,4c-2.6,0-4.2-1.4-4.6-1.7C399.3,253.7,399.2,253.6,399.4,253.2z"/>
	<path fill="#FFFFFF" d="M414.3,252.6c0.8,0,1.8,0.5,1.8,2.4c0,2.2-1.4,3.7-2.1,4.2c-0.2,0.2-0.4,0.2-0.5,0l-0.3-0.3
		c-0.1-0.1-0.1-0.4,0.1-0.5c0.2-0.2,1.5-1.2,1.5-2.9c0,0-0.3,0.1-0.5,0.1c-0.8,0-1.5-0.7-1.5-1.5
		C412.8,253.3,413.4,252.6,414.3,252.6z"/>
	<path fill="#FFFFFF" d="M434.5,240.3c4.2,0,7.6,3.4,7.6,7.7c0,4.2-3.4,7.6-7.6,7.6c-4.2,0-7.6-3.4-7.6-7.6
		C426.9,243.7,430.2,240.3,434.5,240.3z M434.5,253.5c3,0,5.5-2.5,5.5-5.5c0-3-2.5-5.5-5.5-5.5c-3,0-5.5,2.5-5.5,5.5
		C429,251,431.5,253.5,434.5,253.5z"/>
	<path fill="#FFFFFF" d="M447.2,240.7c0-0.2,0.2-0.4,0.4-0.4h0.5l9.2,10.6h0v-10c0-0.2,0.2-0.4,0.4-0.4h1.4c0.2,0,0.4,0.2,0.4,0.4
		v14.3c0,0.2-0.2,0.4-0.4,0.4h-0.6l-9.2-10.9h0V255c0,0.2-0.2,0.4-0.4,0.4h-1.3c-0.2,0-0.4-0.2-0.4-0.4V240.7z"/>
	<path fill="#FFFFFF" d="M465.8,240.9c0-0.2,0.2-0.4,0.4-0.4h1.4c0.2,0,0.4,0.2,0.4,0.4v12.5h5.7c0.2,0,0.4,0.2,0.4,0.4v1.2
		c0,0.2-0.2,0.4-0.4,0.4h-7.5c-0.2,0-0.4-0.2-0.4-0.4V240.9z"/>
	<path fill="#FFFFFF" d="M478.5,240.9c0-0.2,0.2-0.4,0.4-0.4h1.4c0.2,0,0.4,0.2,0.4,0.4v14c0,0.2-0.2,0.4-0.4,0.4h-1.4
		c-0.2,0-0.4-0.2-0.4-0.4V240.9z"/>
	<path fill="#FFFFFF" d="M486.9,240.7c0-0.2,0.2-0.4,0.4-0.4h0.5l9.2,10.6h0v-10c0-0.2,0.2-0.4,0.4-0.4h1.4c0.2,0,0.4,0.2,0.4,0.4
		v14.3c0,0.2-0.2,0.4-0.4,0.4h-0.6l-9.2-10.9h0V255c0,0.2-0.2,0.4-0.4,0.4h-1.3c-0.2,0-0.4-0.2-0.4-0.4V240.7z"/>
	<path fill="#FFFFFF" d="M505.5,240.9c0-0.2,0.2-0.4,0.4-0.4h8.5c0.2,0,0.4,0.2,0.4,0.4v1.2c0,0.2-0.2,0.4-0.4,0.4h-6.7v4.3h5.7
		c0.2,0,0.4,0.2,0.4,0.4v1.2c0,0.2-0.2,0.4-0.4,0.4h-5.7v4.6h6.7c0.2,0,0.4,0.2,0.4,0.4v1.2c0,0.2-0.2,0.4-0.4,0.4h-8.5
		c-0.2,0-0.4-0.2-0.4-0.4V240.9z"/>
	<path fill="#FFFFFF" d="M520.5,252.6c0.8,0,1.8,0.5,1.8,2.4c0,2.2-1.4,3.7-2.1,4.2c-0.2,0.2-0.4,0.2-0.5,0l-0.3-0.3
		c-0.1-0.1-0.1-0.4,0.1-0.5c0.2-0.2,1.5-1.2,1.5-2.9c0,0-0.3,0.1-0.5,0.1c-0.8,0-1.5-0.7-1.5-1.5C519,253.3,519.7,252.6,520.5,252.6
		z"/>
	<path fill="#FFFFFF" d="M534.2,240.9c0-0.2,0.2-0.4,0.4-0.4h8.5c0.2,0,0.4,0.2,0.4,0.4v1.2c0,0.2-0.2,0.4-0.4,0.4h-6.7v4.9h5.7
		c0.2,0,0.4,0.2,0.4,0.4v1.2c0,0.2-0.2,0.4-0.4,0.4h-5.7v5.6c0,0.2-0.2,0.4-0.4,0.4h-1.4c-0.2,0-0.4-0.2-0.4-0.4V240.9z"/>
	<path fill="#FFFFFF" d="M554.8,240.3c4.2,0,7.6,3.4,7.6,7.7c0,4.2-3.4,7.6-7.6,7.6c-4.2,0-7.6-3.4-7.6-7.6
		C547.2,243.7,550.6,240.3,554.8,240.3z M554.8,253.5c3,0,5.5-2.5,5.5-5.5c0-3-2.5-5.5-5.5-5.5c-3,0-5.5,2.5-5.5,5.5
		C549.3,251,551.8,253.5,554.8,253.5z"/>
	<path fill="#FFFFFF" d="M567.6,240.9c0-0.2,0.2-0.4,0.4-0.4h5.8c2.5,0,4.6,2,4.6,4.5c0,1.9-1.3,3.6-3.1,4.3l2.9,5.4
		c0.1,0.3,0,0.6-0.4,0.6h-1.7c-0.2,0-0.3-0.1-0.3-0.2l-2.8-5.6h-3.2v5.4c0,0.2-0.2,0.4-0.4,0.4H568c-0.2,0-0.4-0.2-0.4-0.4V240.9z
		 M573.6,247.7c1.4,0,2.6-1.2,2.6-2.6c0-1.4-1.2-2.5-2.6-2.5h-3.8v5.2H573.6z"/>
	<path fill="#FFFFFF" d="M590.6,240.9c0-0.2,0.2-0.4,0.4-0.4h8.5c0.2,0,0.4,0.2,0.4,0.4v1.2c0,0.2-0.2,0.4-0.4,0.4h-6.7v4.9h5.7
		c0.2,0,0.4,0.2,0.4,0.4v1.2c0,0.2-0.2,0.4-0.4,0.4h-5.7v5.6c0,0.2-0.2,0.4-0.4,0.4H591c-0.2,0-0.4-0.2-0.4-0.4V240.9z"/>
	<path fill="#FFFFFF" d="M604.7,240.9c0-0.2,0.2-0.4,0.4-0.4h5.8c2.5,0,4.6,2,4.6,4.5c0,1.9-1.3,3.6-3.1,4.3l2.9,5.4
		c0.1,0.3,0,0.6-0.4,0.6h-1.7c-0.2,0-0.3-0.1-0.3-0.2l-2.8-5.6h-3.2v5.4c0,0.2-0.2,0.4-0.4,0.4h-1.4c-0.2,0-0.4-0.2-0.4-0.4V240.9z
		 M610.7,247.7c1.4,0,2.6-1.2,2.6-2.6c0-1.4-1.2-2.5-2.6-2.5h-3.8v5.2H610.7z"/>
	<path fill="#FFFFFF" d="M620.9,240.9c0-0.2,0.2-0.4,0.4-0.4h8.5c0.2,0,0.4,0.2,0.4,0.4v1.2c0,0.2-0.2,0.4-0.4,0.4h-6.7v4.3h5.7
		c0.2,0,0.4,0.2,0.4,0.4v1.2c0,0.2-0.2,0.4-0.4,0.4h-5.7v4.6h6.7c0.2,0,0.4,0.2,0.4,0.4v1.2c0,0.2-0.2,0.4-0.4,0.4h-8.5
		c-0.2,0-0.4-0.2-0.4-0.4V240.9z"/>
	<path fill="#FFFFFF" d="M635.5,240.9c0-0.2,0.2-0.4,0.4-0.4h8.5c0.2,0,0.4,0.2,0.4,0.4v1.2c0,0.2-0.2,0.4-0.4,0.4h-6.7v4.3h5.7
		c0.2,0,0.4,0.2,0.4,0.4v1.2c0,0.2-0.2,0.4-0.4,0.4h-5.7v4.6h6.7c0.2,0,0.4,0.2,0.4,0.4v1.2c0,0.2-0.2,0.4-0.4,0.4h-8.5
		c-0.2,0-0.4-0.2-0.4-0.4V240.9z"/>
	<path fill="#FFFFFF" d="M650.5,252.6c0.8,0,1.5,0.7,1.5,1.5c0,0.8-0.7,1.5-1.5,1.5c-0.8,0-1.5-0.7-1.5-1.5
		C649,253.3,649.7,252.6,650.5,252.6z"/>
</g>
<g>
	<g>
		<path fill="#FFFFFF" d="M105.3,137.5c9.8,0,17,3.1,23.6,9.1c0.9,0.8,0.9,1.9,0.1,2.7l-5.9,6.1c-0.7,0.8-1.7,0.8-2.4,0
			c-4.1-3.6-9.6-5.8-15-5.8c-12.5,0-21.7,10.4-21.7,22.7c0,12.2,9.4,22.5,21.8,22.5c5.8,0,10.8-2.2,14.9-5.6c0.8-0.7,1.9-0.6,2.4,0
			l6,6.2c0.8,0.7,0.6,1.9-0.1,2.6c-6.6,6.4-15,9.5-23.7,9.5c-19.5,0-35.2-15.5-35.2-35C70.1,153.1,85.8,137.5,105.3,137.5z"/>
		<path fill="#FFFFFF" d="M181.3,137.5c19.5,0,35.1,15.7,35.1,35.2c0,19.5-15.6,35-35.1,35c-19.5,0-35-15.5-35-35
			C146.3,153.1,161.8,137.5,181.3,137.5z M181.3,195c12.3,0,22.4-10,22.4-22.3c0-12.3-10.1-22.5-22.4-22.5
			c-12.3,0-22.3,10.2-22.3,22.5C159,184.9,169,195,181.3,195z"/>
		<path fill="#FFFFFF" d="M237.9,140.3c0-1,0.9-1.9,1.9-1.9h9.3c1.1,0,1.9,0.9,1.9,1.9v39.9c0,8.3,5.7,14.8,14.1,14.8
			s14.2-6.5,14.2-14.7v-40c0-1,0.8-1.9,1.9-1.9h9.3c1,0,1.9,0.9,1.9,1.9v40.5c0,14.8-11.8,26.8-27.2,26.8c-15.3,0-27.1-12-27.1-26.8
			V140.3z"/>
		<path fill="#FFFFFF" d="M318.7,140.3c0-1,0.8-1.9,1.9-1.9h27.9c11.7,0,21.2,9.4,21.2,21c0,9-5.9,16.3-14.4,19.7l13.4,24.8
			c0.7,1.3,0,2.8-1.7,2.8h-10.2c-0.9,0-1.4-0.5-1.6-0.9l-13-25.8h-10.8v24.9c0,1-0.9,1.9-1.9,1.9h-9c-1.1,0-1.9-0.9-1.9-1.9V140.3z
			 M347.4,169.5c5.2,0,9.6-4.5,9.6-9.9c0-5.2-4.5-9.5-9.6-9.5h-15.9v19.4H347.4z"/>
		<path fill="#FFFFFF" d="M389.4,197.1l3.5-6c0.8-1.4,2.4-1.4,3.3-0.7c0.5,0.3,8.4,6,14.7,6c5.1,0,8.9-3.3,8.9-7.5
			c0-5-4.2-8.4-12.4-11.7c-9.2-3.7-18.3-9.6-18.3-21.1c0-8.7,6.4-18.7,21.9-18.7c9.9,0,17.5,5.1,19.5,6.5c1,0.6,1.3,2.2,0.6,3.2
			l-3.7,5.6c-0.8,1.2-2.2,1.9-3.4,1.2c-0.8-0.5-8.2-5.4-13.5-5.4c-5.6,0-8.6,3.7-8.6,6.8c0,4.6,3.6,7.7,11.5,10.9
			c9.5,3.8,20.4,9.5,20.4,22c0,10-8.7,19.3-22.4,19.3c-12.3,0-19.5-5.8-21.4-7.6C389,199.1,388.5,198.7,389.4,197.1z"/>
		<path fill="#FFFFFF" d="M455.9,140.3c0-1,0.8-1.9,1.9-1.9h39.7c1.1,0,1.9,0.9,1.9,1.9v8c0,1-0.8,1.9-1.9,1.9h-28.8v16h24.1
			c1,0,1.9,0.9,1.9,1.9v8.1c0,1.1-0.9,1.9-1.9,1.9h-24.1V195h28.8c1.1,0,1.9,0.9,1.9,1.9v8c0,1-0.8,1.9-1.9,1.9h-39.7
			c-1.1,0-1.9-0.9-1.9-1.9V140.3z"/>
		<path fill="#FFFFFF" d="M523,140.3c0-1,0.8-1.9,1.9-1.9h27.9c11.7,0,21.2,9.4,21.2,21c0,9-5.9,16.3-14.4,19.7l13.4,24.8
			c0.7,1.3,0,2.8-1.7,2.8H561c-0.9,0-1.4-0.5-1.6-0.9l-13-25.8h-10.8v24.9c0,1-0.9,1.9-1.9,1.9h-9c-1.1,0-1.9-0.9-1.9-1.9V140.3z
			 M551.7,169.5c5.2,0,9.6-4.5,9.6-9.9c0-5.2-4.5-9.5-9.6-9.5h-15.9v19.4H551.7z"/>
		<path fill="#FFFFFF" d="M588.8,204.1l30.3-65.6c0.3-0.6,0.8-1.1,1.7-1.1h1c1,0,1.4,0.5,1.7,1.1l30,65.6c0.6,1.3-0.2,2.5-1.7,2.5
			h-8.5c-1.5,0-2.1-0.6-2.8-1.9l-4.8-10.5h-29.1l-4.8,10.5c-0.4,1-1.3,1.9-2.8,1.9h-8.5C589,206.6,588.2,205.4,588.8,204.1z
			 M630.9,183.4l-9.7-21.4h-0.3l-9.6,21.4H630.9z"/>
	</g>
	<g>
		<g>
			<path fill="#FFFFFF" d="M44.3,139.7c0.2-0.7,1-1.3,1.8-1.3h9.4c1.4,0,2.1,1.1,1.8,2.4l-43.1,64.5c-0.2,0.7-1.1,1.3-1.8,1.3H2.8
				c-1.3,0-2.1-1.1-1.8-2.4L44.3,139.7z"/>
		</g>
	</g>
</g>
</svg>
